<svg xmlns="http://www.w3.org/2000/svg" x="0px" y="0px"
     width="64" height="64"
     viewBox="0 0 64 64"
     style=" fill:#000000;"><radialGradient id="Ha0ioU1lfTi7KmnHjrFJna" cx="465.6" cy="67.75" r="379.081" fx="841.441" fy="117.203" gradientUnits="userSpaceOnUse" spreadMethod="reflect"><stop offset="0" stop-color="#efdcb1"></stop><stop offset="0" stop-color="#f2e0bb"></stop><stop offset=".011" stop-color="#f2e0bc"></stop><stop offset=".362" stop-color="#f9edd2"></stop><stop offset=".699" stop-color="#fef4df"></stop><stop offset="1" stop-color="#fff7e4"></stop></radialGradient><path fill="url(#undefined)" d="M55.454,45.668c0.5,0.898,1.504,1.337,2.532,1.333c1.75-0.008,3.153,1.483,3.002,3.262 C60.855,51.838,59.434,53,57.852,53H48v1H26h-8H7c-1.71,0-3.086-1.431-2.996-3.161C4.089,49.216,5.545,48,7.17,48H8 c1.215,0,2.176-1.083,1.973-2.336C9.813,44.681,8.889,44,7.893,44H3c-1.71,0-3.086-1.431-2.996-3.161C0.089,39.216,1.545,38,3.17,38 H9.5c1.381,0,2.5-1.119,2.5-2.5c0-1.381-1.119-2.5-2.5-2.5S7,31.881,7,30.5C7,29.119,8.119,28,9.5,28H18v-7h-7.5 c-1.995,0-3.601-1.67-3.495-3.688C7.104,15.419,8.803,14,10.698,14H18v-4h24h6h8.198c1.995,0,3.601,1.67,3.495,3.688 C59.594,15.581,57.895,17,56,17h-2.5c-1.995,0-3.601,1.67-3.495,3.688C50.104,22.581,51.803,24,53.698,24H56 c1.777,0,3.194,1.546,2.978,3.366c-0.179,1.509-1.546,2.571-3.064,2.635c-1.197,0.05-2.122,1.153-1.874,2.406 C54.228,33.355,55.123,34,56.089,34H60.5c1.995,0,3.601,1.67,3.495,3.688C63.896,39.581,62.197,41,60.302,41H58 C55.808,41,54.166,43.35,55.454,45.668z M2.5,33C3.881,33,5,31.881,5,30.5C5,29.119,3.881,28,2.5,28S0,29.119,0,30.5 C0,31.881,1.119,33,2.5,33z"></path><linearGradient id="Ha0ioU1lfTi7KmnHjrFJnb_118949_gr1" x1="33" x2="33" y1="94.5" y2="22.998" gradientUnits="userSpaceOnUse" spreadMethod="reflect"><stop offset="0" stop-color="#ff8b67"></stop><stop offset=".847" stop-color="#ffa76a"></stop><stop offset="1" stop-color="#ffad6b"></stop><stop offset="1" stop-color="#ffad6b"></stop></linearGradient><path fill="url(#Ha0ioU1lfTi7KmnHjrFJnb_118949_gr1)" d="M50,58H16c-1.657,0-3-1.343-3-3V9c0-1.657,1.343-3,3-3h34c1.657,0,3,1.343,3,3v46 C53,56.657,51.657,58,50,58z"></path><linearGradient id="Ha0ioU1lfTi7KmnHjrFJnc_118949_gr2" x1="29" x2="39" y1="26" y2="26" gradientUnits="userSpaceOnUse" spreadMethod="reflect"><stop offset="0" stop-color="#ecf9fd"></stop><stop offset=".848" stop-color="#f2fdff"></stop><stop offset="1" stop-color="#f4feff"></stop></linearGradient><path fill="url(#Ha0ioU1lfTi7KmnHjrFJnc_118949_gr2)" d="M39,26c0,2.764-2.236,5-5,5s-5-2.236-5-5s2.236-5,5-5S39,23.236,39,26z"></path><linearGradient id="Ha0ioU1lfTi7KmnHjrFJnd_118949_gr3" x1="26" x2="42" y1="36.5" y2="36.5" gradientUnits="userSpaceOnUse" spreadMethod="reflect"><stop offset="0" stop-color="#ecf9fd"></stop><stop offset=".848" stop-color="#f2fdff"></stop><stop offset="1" stop-color="#f4feff"></stop></linearGradient><path fill="url(#Ha0ioU1lfTi7KmnHjrFJnd_118949_gr3)" d="M42,40c-0.497-3.945-3.886-7-8-7s-7.503,3.055-8,7H42z"></path><linearGradient id="Ha0ioU1lfTi7KmnHjrFJne_118949_gr4" x1="16" x2="16" y1="58" y2="-11.343" gradientUnits="userSpaceOnUse" spreadMethod="reflect"><stop offset="0" stop-color="#ff8b67"></stop><stop offset=".847" stop-color="#ffa76a"></stop><stop offset="1" stop-color="#ffad6b"></stop><stop offset="1" stop-color="#ffad6b"></stop></linearGradient><path fill="url(#Ha0ioU1lfTi7KmnHjrFJne_118949_gr4)" d="M19,58h-3c-1.657,0-3-1.343-3-3V9c0-1.657,1.343-3,3-3h3V58z"></path><linearGradient id="Ha0ioU1lfTi7KmnHjrFJnf_118949_gr5" x1="42.5" x2="42.5" y1="54.103" y2="31.155" gradientUnits="userSpaceOnUse" spreadMethod="reflect"><stop offset="0" stop-color="#ff8b67"></stop><stop offset=".847" stop-color="#ffa76a"></stop><stop offset="1" stop-color="#ffad6b"></stop><stop offset="1" stop-color="#ffad6b"></stop></linearGradient><path fill="url(#Ha0ioU1lfTi7KmnHjrFJnf_118949_gr5)" d="M41,45.5L41,45.5c0,1.381,1.119,2.5,2.5,2.5h2c1.381,0,2.5,1.119,2.5,2.5v0 c0,1.381-1.119,2.5-2.5,2.5h-11c-1.381,0-2.5,1.119-2.5,2.5v0c0,1.381,1.119,2.5,2.5,2.5H50c1.657,0,3-1.343,3-3V43h-9.5 C42.119,43,41,44.119,41,45.5z"></path><linearGradient id="Ha0ioU1lfTi7KmnHjrFJng_118949_gr6" x1="36.5" x2="36.5" y1="50.816" y2="37.999" gradientUnits="userSpaceOnUse" spreadMethod="reflect"><stop offset="0" stop-color="#ff8b67"></stop><stop offset=".847" stop-color="#ffa76a"></stop><stop offset="1" stop-color="#ffad6b"></stop><stop offset="1" stop-color="#ffad6b"></stop></linearGradient><path fill="url(#Ha0ioU1lfTi7KmnHjrFJng_118949_gr6)" d="M36.5 43A2.5 2.5 0 1 0 36.5 48A2.5 2.5 0 1 0 36.5 43Z"></path></svg>
